<svg width="313" height="282" viewBox="0 0 313 282" fill="none" xmlns="http://www.w3.org/2000/svg">
<g clip-path="url(#clip0_122_13)">
<path d="M262.08 111.33C246.35 111.33 230.61 111.33 214.87 111.33C214.187 111.414 213.497 111.252 212.923 110.872C212.35 110.493 211.93 109.921 211.74 109.26C202.36 88.4 186.42 75.92 163.65 73.11C132.12 69.22 103.73 90.47 97.8599 121.82C91.8599 153.82 113.86 185.47 146.04 191.07C160.114 193.665 174.651 191.097 186.984 183.838C199.317 176.578 208.618 165.114 213.18 151.55C213.304 150.942 213.658 150.407 214.17 150.056C214.681 149.705 215.309 149.567 215.92 149.67C247.333 149.71 278.74 149.71 310.14 149.67C311.47 149.67 312.46 149.59 312.22 151.52C309.07 177.46 300.42 201.27 284.72 222.29C264.72 248.99 238.2 266.04 206.35 275.17C190.917 279.498 174.968 281.715 158.94 281.76C130.36 282.04 102.94 276.76 77.5699 263.35C36.3799 241.54 11.3999 207.47 2.82991 161.7C-2.67565 133.156 -0.16619 103.645 10.0799 76.44C10.7599 74.61 11.6999 74.04 13.6099 73.88C21.8999 73.2 30.1699 72.3 38.4499 71.5C46.3699 70.73 54.2999 70 62.2199 69.24C71.9199 68.3 81.6099 67.33 91.2999 66.39L114.86 64.12L144.34 61.25C152.26 60.48 160.19 59.75 168.12 58.98C177.81 58.05 187.5 57.08 197.2 56.14L220.76 53.87L250.34 51L273.91 48.74C277.91 48.35 281.84 48.02 285.79 47.53C286.532 47.3453 287.314 47.4143 288.012 47.7261C288.709 48.0378 289.283 48.5743 289.64 49.25C301.308 67.4652 308.876 87.9995 311.82 109.43C312.1 111.43 311.09 111.29 309.77 111.29C293.863 111.27 277.967 111.283 262.08 111.33Z" fill="#5C69AF"/>
<path d="M12.34 31.44C12.34 21.69 12.39 11.94 12.29 2.19C12.29 0.360004 12.82 -0.0199981 14.55 1.92592e-06C23.02 0.0900019 31.49 -0.0599962 39.96 0.0800038C48.43 0.220004 55.45 3.41 59.96 10.78C62.2312 14.3021 63.4928 18.3798 63.6074 22.5691C63.722 26.7584 62.6853 30.899 60.61 34.54C56.31 42.67 49.01 46.11 40.08 46.48C37.3734 46.5867 34.6667 46.5867 31.96 46.48C30.51 46.42 30.19 46.94 30.21 48.29C30.3 52.21 30.21 56.12 30.21 60.04C30.21 60.78 30.43 61.54 29.16 61.63C24.12 61.99 19.09 62.4267 14.07 62.94C12.48 63.11 12.32 62.43 12.33 61.14C12.34 51.23 12.34 41.33 12.34 31.44Z" fill="#56A347"/>
<path d="M204.65 30.33C204.65 34.55 204.58 38.68 204.65 42.81C204.65 44.41 204.13 44.81 202.59 44.91C198.13 45.21 193.67 45.7 189.22 46.19C187.91 46.33 187.37 46.14 187.37 44.6C187.43 30.3 187.43 15.9967 187.37 1.69C187.37 0.220001 187.86 -0.0500005 189.19 -0.0300005C193.1 0.0499995 197.02 0.0799995 200.93 -0.0300005C201.586 -0.0775515 202.243 0.0603752 202.825 0.36804C203.406 0.675705 203.89 1.14071 204.22 1.71C211.52 11.7767 218.853 21.82 226.22 31.84C226.42 32.11 226.65 32.36 227.12 32.93C227.17 31.93 227.23 31.24 227.23 30.58C227.23 21.04 227.23 11.5 227.23 1.97C227.23 0.36 227.65 -0.0300005 229.23 -0.0300005C233.71 0.0899995 238.23 0.0599995 242.68 -0.0300005C244.1 -0.0300005 244.63 0.250003 244.63 1.81C244.563 14.1967 244.563 26.58 244.63 38.96C244.63 40.36 244.16 40.83 242.85 40.96C234.01 41.8133 225.17 42.69 216.33 43.59C215.882 43.6655 215.422 43.6026 215.011 43.4096C214.6 43.2166 214.258 42.9028 214.03 42.51C211.44 38.85 208.78 35.26 206.11 31.66C205.76 31.18 205.55 30.39 204.65 30.33Z" fill="#56A347"/>
<path d="M117.66 53.16C120.83 45.05 123.83 37.32 126.86 29.6C130.49 20.36 134.19 11.14 137.76 1.87C137.895 1.26714 138.254 0.738262 138.765 0.390896C139.276 0.0435304 139.9 -0.0962441 140.51 -3.58745e-06C145.06 0.109996 149.62 0.0699964 154.18 -3.58745e-06C154.656 -0.0911992 155.148 -0.00119284 155.561 0.252316C155.973 0.505824 156.276 0.904504 156.41 1.37C162.363 16.33 168.363 31.2733 174.41 46.2C174.9 47.4 174.52 47.72 173.41 47.82L150.69 50.01C141.07 50.9433 131.447 51.8733 121.82 52.8C120.56 52.95 119.34 53.03 117.66 53.16Z" fill="#56A347"/>
<path d="M278.66 0.0399986C286.71 0.0399986 294.76 0.0399986 302.81 0.0399986C304.32 0.0399986 304.94 0.280001 304.88 1.98C304.74 6.11 304.79 10.24 304.88 14.37C304.88 15.78 304.43 16.23 303.04 16.21C298.48 16.14 293.92 16.21 289.36 16.15C287.91 16.15 287.41 16.47 287.44 18.01C287.54 23.34 287.33 28.69 287.55 34.01C287.64 36.17 286.55 36.68 284.99 36.77C280.57 37.04 276.18 37.49 271.8 38.09C270.21 38.3 269.42 38.01 269.48 36.03C269.63 30.13 269.48 24.21 269.58 18.31C269.58 16.45 269.04 16.08 267.32 16.13C262.98 16.25 258.63 16.13 254.32 16.21C252.67 16.21 252.26 15.71 252.32 14.14C252.42 10.14 252.45 6.02 252.32 1.97C252.26 0.269999 252.88 -0.0300035 254.39 0.0299965C262.42 0.0799965 270.54 0.0399986 278.66 0.0399986Z" fill="#56A347"/>
<path d="M71.1999 28.74C71.1999 19.85 71.1999 10.96 71.1499 2.07C71.1499 0.329999 71.6699 -0.0300003 73.2899 -2.60537e-07C77.9566 0.113333 82.6499 0.113333 87.3699 -2.60537e-07C88.8999 -2.60537e-07 89.2399 0.440001 89.2299 1.9C89.1699 16.41 89.2299 30.9 89.1399 45.43C89.1399 47.43 89.7299 47.88 91.6299 47.85C97.6299 47.73 103.72 47.85 109.77 47.77C111.36 47.77 112 48.05 111.94 49.82C111.81 53.66 111.94 53.77 108.21 54.14C96.2699 55.33 84.3399 56.43 72.3399 57.62C70.7899 57.78 71.1899 56.8 71.1899 56.05C71.1832 46.95 71.1866 37.8467 71.1999 28.74Z" fill="#56A347"/>
<path d="M30.21 23.07C30.21 21.01 30.21 18.94 30.21 16.88C30.21 15.95 30.53 15.63 31.44 15.65C33.79 15.71 36.15 15.58 38.44 15.75C42.6 16.05 45.27 19.3 45.09 23.65C45.1009 24.5971 44.9214 25.5367 44.5622 26.413C44.203 27.2893 43.6713 28.0846 42.9988 28.7515C42.3263 29.4184 41.5266 29.9434 40.6473 30.2953C39.768 30.6472 38.8269 30.8188 37.88 30.8C35.74 30.8 33.6 30.75 31.47 30.8C30.47 30.8 30.12 30.47 30.16 29.46C30.25 27.33 30.2 25.21 30.21 23.07Z" fill="white"/>
<path d="M154.03 39.68H140.34C142.57 33.34 144.77 27.11 147.12 20.46L154.03 39.68Z" fill="white"/>
</g>
<defs>
<clipPath id="clip0_122_13">
<rect width="312.26" height="281.77" fill="white"/>
</clipPath>
</defs>
</svg>
